<?xml version="1.0" standalone="no"?>
<!DOCTYPE svg PUBLIC "-//W3C//DTD SVG 20010904//EN"
 "http://www.w3.org/TR/2001/REC-SVG-20010904/DTD/svg10.dtd">
<svg version="1.0" xmlns="http://www.w3.org/2000/svg"
 width="2048.000000pt" height="2048.000000pt" viewBox="0 0 2048.000000 2048.000000"
 preserveAspectRatio="xMidYMid meet">

<g transform="translate(0.000000,2048.000000) scale(0.100000,-0.100000)"
fill="#000000" stroke="none">
<path d="M9240 19610 c-1262 -73 -2504 -396 -3585 -930 -852 -421 -1566 -931
-2226 -1590 -316 -315 -526 -556 -775 -886 -101 -134 -346 -491 -400 -584 -12
-19 -46 -75 -76 -125 -30 -49 -78 -130 -105 -180 -28 -49 -61 -108 -73 -130
-49 -86 -241 -478 -304 -617 -147 -329 -341 -864 -426 -1178 -18 -63 -38 -135
-45 -160 -12 -38 -30 -111 -95 -385 -30 -124 -92 -464 -130 -705 -13 -87 -47
-378 -60 -515 -13 -141 -13 -1613 0 -1778 38 -474 137 -1060 270 -1588 239
-954 633 -1882 1173 -2769 122 -200 370 -562 482 -705 342 -435 525 -644 827
-940 214 -212 293 -284 471 -438 560 -483 1156 -881 1796 -1201 1180 -591
2361 -910 3766 -1018 226 -17 1097 -17 1295 0 1111 97 1937 282 2810 630 1277
510 2454 1359 3342 2412 806 957 1436 2135 1783 3335 199 688 304 1274 362
2005 22 283 25 1049 5 1295 -86 1046 -288 1929 -657 2865 -105 266 -161 393
-300 675 -507 1031 -1134 1889 -1936 2650 -462 439 -1012 861 -1494 1147 -676
401 -1016 569 -1595 788 -881 333 -1709 514 -2770 606 -214 18 -1092 28 -1330
14z m1106 -320 c1194 -68 2337 -353 3424 -855 235 -108 609 -300 758 -389 353
-211 841 -555 1147 -810 288 -239 693 -625 894 -851 41 -46 84 -94 95 -107
213 -230 653 -812 853 -1128 380 -600 700 -1266 926 -1925 232 -679 374 -1340
451 -2110 58 -568 54 -1289 -10 -1865 -142 -1294 -559 -2550 -1207 -3635 -97
-162 -288 -457 -370 -570 -72 -100 -249 -336 -269 -360 -9 -11 -57 -70 -106
-131 -319 -391 -804 -878 -1162 -1164 -63 -51 -124 -99 -135 -109 -35 -28
-257 -194 -325 -242 -583 -411 -1282 -771 -1975 -1017 -782 -278 -1474 -422
-2370 -494 -215 -17 -1085 -17 -1300 0 -1141 91 -2145 340 -3131 777 -902 400
-1829 1020 -2489 1666 -455 445 -770 809 -1107 1279 -591 827 -1027 1734
-1323 2755 -431 1485 -498 3066 -194 4570 293 1445 903 2731 1811 3817 837
999 1915 1767 3193 2273 871 345 1851 561 2780 615 105 6 208 12 230 14 102 8
752 5 911 -4z"/>
<path d="M6620 16463 c-234 -1 -762 -7 -1174 -12 l-748 -11 -97 -68 c-53 -38
-125 -85 -162 -105 -76 -43 -104 -71 -112 -111 -3 -16 -1 -250 4 -519 10 -509
11 -517 52 -517 8 0 20 -7 28 -16 7 -9 80 -61 163 -116 129 -86 153 -99 180
-94 47 8 1042 42 2356 82 322 9 379 22 475 106 24 21 60 60 79 87 l36 48 211
2 c145 1 220 5 238 14 l26 12 -3 200 c-7 451 -22 842 -33 874 l-12 34 -258 -7
-258 -7 -103 59 -103 59 -180 5 c-99 2 -371 3 -605 1z m843 -99 c10 -10 -31
-61 -133 -166 l-95 -98 -425 0 c-234 0 -755 -5 -1159 -10 l-734 -10 -71 55
c-39 30 -82 63 -95 74 l-25 19 27 35 26 35 288 6 c1294 29 2245 55 2252 61 7
7 137 6 144 -1z m-194 -511 c58 -53 117 -106 129 -118 l24 -22 -150 -120 -150
-120 -224 -7 c-336 -10 -1179 -44 -1560 -61 -280 -14 -341 -14 -356 -3 -16 11
-68 68 -136 148 -11 14 -45 54 -75 88 l-54 64 104 98 104 99 175 1 c173 0
1212 25 1675 39 132 4 273 8 314 9 l74 2 106 -97z m-14 -581 c17 -15 72 -65
123 -111 50 -46 92 -87 92 -92 0 -5 -19 -6 -42 -3 -45 6 -474 -6 -1078 -31
-826 -34 -1360 -55 -1425 -55 -65 0 -72 3 -107 34 -21 19 -38 38 -38 43 1 16
140 108 202 134 62 26 69 27 423 38 630 21 1626 58 1715 64 25 2 59 4 75 5 20
1 40 -7 60 -26z"/>
<path d="M8322 16444 c-58 -40 -64 -87 -44 -374 18 -277 32 -566 32 -672 0
-142 13 -196 55 -235 19 -18 44 -33 56 -33 35 0 106 48 120 83 17 38 16 246
-1 407 -6 58 -15 200 -20 315 -17 376 -34 451 -109 502 -40 27 -59 29 -89 7z"/>
<path d="M14690 16233 c-47 -1 -330 -10 -630 -18 -1246 -36 -2199 -65 -2410
-75 -124 -6 -634 -22 -1135 -35 -1106 -30 -1760 -52 -1802 -61 -36 -7 -51 -58
-47 -155 10 -208 14 -252 26 -266 11 -13 60 -14 388 -9 549 10 2203 50 2710
66 168 5 415 12 550 15 135 3 380 10 545 15 165 6 593 17 950 25 893 21 1352
34 1469 42 l99 6 191 96 c105 53 195 104 200 113 7 12 6 27 -6 50 -14 31 -30
39 -224 116 l-209 82 -290 -2 c-159 -1 -328 -3 -375 -5z"/>
<path d="M11801 14921 c-20 -21 -63 -68 -95 -105 -70 -80 -165 -158 -263 -215
-121 -72 -380 -179 -663 -277 -85 -29 -240 -85 -345 -125 -104 -39 -248 -89
-320 -110 -71 -22 -164 -50 -205 -64 -198 -65 -332 -79 -510 -55 -122 17 -205
59 -335 169 -84 73 -135 70 -170 -9 -18 -40 -18 -58 -7 -463 12 -415 40 -1553
63 -2592 10 -475 13 -534 29 -565 19 -37 74 -92 128 -130 l33 -22 387 12 387
12 44 34 c62 47 287 250 410 369 57 55 171 181 254 279 83 98 237 267 342 375
104 108 231 241 280 296 50 55 198 210 329 344 267 274 304 317 351 411 63
125 61 13 25 1820 -12 585 -14 626 -40 640 -38 20 -71 11 -109 -29z m-440
-1176 c78 -27 137 -95 164 -188 21 -74 10 -151 -35 -236 -76 -141 -198 -222
-570 -375 -91 -38 -228 -97 -305 -131 -77 -35 -205 -89 -284 -120 -80 -32
-192 -79 -250 -105 -191 -86 -342 -118 -496 -106 -118 9 -154 22 -202 72 -52
53 -67 104 -61 204 7 119 61 213 183 319 135 118 243 176 600 323 636 261 933
357 1116 358 60 0 112 -6 140 -15z m-306 -1726 c13 -13 26 -34 30 -46 6 -22 4
-23 -48 -23 -30 0 -82 -3 -117 -7 -62 -6 -62 -6 -55 18 3 13 22 39 42 58 32
30 40 33 80 28 30 -3 53 -13 68 -28z m25 -106 c0 -31 -25 -86 -44 -99 -31 -19
-97 -22 -130 -5 -23 13 -56 65 -56 90 0 6 33 12 83 14 45 1 97 4 115 5 17 1
32 -1 32 -5z m-853 -713 c2 0 3 -7 3 -14 0 -16 -165 -136 -187 -136 -34 0 6
118 49 141 38 20 72 26 103 17 16 -4 31 -8 32 -8z m55 -85 c20 -76 -49 -165
-129 -165 -30 0 -93 33 -93 49 0 6 26 28 58 50 31 21 75 53 96 70 46 36 57 36
68 -4z m-1019 -428 c3 -62 9 -121 13 -130 5 -14 0 -17 -32 -17 -45 0 -73 20
-103 70 -25 42 -27 97 -5 129 16 22 85 60 110 61 7 0 13 -41 17 -113z m96 102
c100 -35 87 -249 -16 -249 -33 0 -40 23 -48 148 -8 125 -8 126 64 101z"/>
<path d="M11622 11983 c-170 -171 -351 -363 -428 -452 -16 -19 -69 -80 -119
-134 -49 -55 -128 -143 -174 -196 -46 -53 -134 -150 -195 -216 -61 -66 -128
-141 -149 -165 -114 -133 -332 -361 -403 -420 -125 -107 -150 -116 -329 -123
-325 -13 -727 -38 -751 -47 -23 -9 -24 -12 -24 -112 0 -166 53 -2099 75 -2718
15 -444 18 -530 40 -1400 32 -1189 55 -2035 65 -2300 5 -151 12 -351 15 -445
15 -498 26 -736 35 -759 6 -18 17 -26 33 -26 38 0 835 49 909 56 37 3 75 12
84 19 17 12 16 14 -12 38 -16 14 -55 41 -86 59 -81 47 -82 46 45 73 50 11 80
22 84 32 7 17 -26 49 -111 108 -54 37 -52 42 31 64 22 6 51 19 64 30 l22 18
-46 32 c-26 18 -47 35 -47 39 0 4 26 15 58 24 65 19 98 40 88 56 -4 6 -42 36
-86 67 -44 31 -80 60 -80 64 0 5 39 15 87 22 110 18 115 30 38 93 -64 51 -65
48 40 76 39 10 61 21 63 32 2 10 -24 36 -72 73 -42 31 -78 60 -81 65 -3 4 28
15 68 25 87 20 117 31 117 44 0 6 -27 29 -60 53 -33 23 -60 45 -60 50 0 7 35
19 110 36 19 5 36 15 38 23 2 9 -26 38 -67 70 -39 30 -70 57 -71 60 0 4 30 15
68 24 104 28 105 34 28 96 -36 29 -66 55 -66 59 0 4 34 17 75 30 105 33 107
51 13 112 -45 30 -48 33 -31 45 10 8 36 19 58 25 75 21 76 31 11 97 -32 32
-54 61 -49 64 4 2 24 8 43 12 79 15 110 26 110 39 0 7 -27 39 -60 70 -33 32
-58 62 -55 66 3 5 32 12 65 16 33 4 68 12 77 20 17 12 12 19 -50 82 -68 68
-68 68 -43 80 13 6 43 16 65 22 55 15 53 35 -9 84 -28 22 -50 43 -50 47 0 4
26 13 58 20 94 20 96 29 23 99 -72 68 -74 63 42 96 74 20 72 33 -13 97 -36 27
-66 52 -68 56 -3 9 56 21 104 21 17 0 37 7 44 16 11 13 5 23 -40 69 -30 30
-52 56 -49 58 12 10 78 36 105 42 18 3 40 15 49 25 16 18 14 21 -54 71 -39 29
-67 57 -63 61 4 4 30 12 57 19 68 16 95 27 95 38 0 10 -59 69 -96 96 -25 18
-18 23 57 44 87 24 89 43 10 109 -71 59 -69 63 37 85 41 9 76 17 78 20 11 11
-11 35 -68 76 l-62 44 70 26 c38 14 75 30 81 34 22 14 2 37 -63 73 -35 20 -64
39 -64 43 0 4 36 15 80 25 43 9 83 22 86 28 5 7 -22 39 -66 81 -80 75 -81 80
-2 92 61 9 92 22 92 37 0 7 -30 35 -67 62 -75 54 -74 59 18 71 26 3 55 12 65
21 18 14 15 18 -50 79 -78 73 -80 68 32 95 79 18 79 32 1 94 -27 22 -49 42
-49 45 0 3 32 20 70 38 39 17 70 36 70 42 0 5 -22 29 -50 52 -27 23 -50 46
-50 51 0 5 17 16 38 24 80 34 102 47 102 63 -1 9 -25 34 -55 56 -29 22 -50 43
-46 47 4 5 38 18 76 31 38 13 70 28 72 33 2 6 -24 36 -57 68 -33 32 -60 59
-60 61 0 2 15 6 33 10 46 10 97 35 97 49 0 6 -25 36 -55 66 -30 30 -55 57 -55
61 0 4 28 13 63 21 55 12 62 16 65 39 3 22 -6 33 -50 64 l-52 38 49 22 c28 12
62 25 78 28 41 11 33 36 -30 93 l-57 51 54 12 c77 17 110 31 110 46 0 7 -27
38 -61 69 l-60 56 26 10 c14 6 29 10 33 10 28 0 82 24 82 35 0 8 -28 38 -62
66 -35 29 -64 55 -66 59 -3 8 97 40 126 40 53 0 38 43 -34 95 -50 36 -54 40
-37 52 10 8 36 18 58 24 57 16 86 31 82 43 -2 6 -28 28 -58 49 -30 21 -55 42
-57 46 -1 5 30 21 70 37 45 18 73 35 73 44 0 8 -33 39 -72 70 l-73 55 48 12
c26 7 59 13 73 13 15 0 32 7 39 15 11 13 5 23 -39 63 -28 26 -51 52 -51 58 0
7 25 15 57 19 69 8 103 21 103 36 0 7 -31 44 -70 82 -38 38 -67 73 -65 77 3 4
32 10 65 14 112 13 115 24 30 93 -33 26 -60 51 -60 54 0 3 34 16 75 28 55 17
75 27 75 40 0 9 -27 37 -60 61 -33 25 -60 48 -60 52 0 10 90 38 122 38 17 0
31 7 35 15 6 19 -15 44 -79 95 l-47 38 37 15 c21 8 56 20 79 26 22 6 43 18 47
26 5 14 -54 69 -102 94 -31 17 -22 26 48 47 89 26 92 36 26 80 -31 20 -56 38
-56 40 0 2 32 20 70 39 39 19 70 41 70 48 0 6 -32 34 -70 60 -39 26 -70 51
-70 55 0 4 32 19 71 32 100 35 103 43 46 97 -26 24 -47 48 -47 53 0 5 25 12
55 15 30 4 62 13 72 20 21 16 13 27 -69 96 l-56 47 31 6 c17 3 57 16 89 27 74
28 75 45 3 101 -30 23 -55 45 -55 49 0 3 27 14 60 24 61 18 86 36 76 53 -3 5
-33 27 -66 48 -33 22 -60 41 -60 44 0 7 107 50 123 50 22 0 37 22 27 39 -4 9
-34 37 -64 61 -31 25 -56 48 -56 51 0 4 24 13 53 19 66 16 107 37 107 55 0 8
-30 32 -66 53 l-66 40 24 16 c13 8 48 21 78 29 85 22 87 38 13 107 -35 31 -63
60 -63 63 0 6 48 24 87 32 59 12 60 29 2 75 -29 23 -70 50 -92 61 l-39 20
-186 -188z"/>
</g>
</svg>
